<svg width="185.39999999999998" height="79.51599999999999" viewBox="0 0 450 193" class="looka-1j8o68f"><defs id="SvgjsDefs1177"></defs><g id="SvgjsG1178" featurekey="rootContainer" transform="matrix(1,0,0,1,0,0)" fill="#ffffff"><path xmlns="http://www.w3.org/2000/svg" fill-rule="evenodd" d=" M0,0 H450 V193 H0,0 z M2,2 H448 V191 H2,2 z M6,6 H444 V187 H6 z M8,8 H442 V185 H6,8 z "></path></g><g id="SvgjsG1179" featurekey="q4o0QG-0" transform="matrix(6.183745332977565,0,0,6.183745332977565,45.547700234698226,18.462911186100538)" fill="#ffffff"><path d="M4.42 5.18 l-0.06 13.02 l1.6 -0.22 l1.4 0.04 l-0.06 1.88 l-1.2 0.16 l-5.12 -0.04 l-0.26 -13.42 l0.3 -1.44 z M15.86 7.199999999999999 l-0.08 10.84 l-0.22 1.44 l-0.64 0.52 l-2.04 0.22 l-3.74 -0.36 l-0.54 -0.54 l-0.38 -0.82 l0.08 -3.44 c0 -1.5 0.02 -2.86 0.06 -4.06 c-0.02 -2.04 0 -4.08 0.06 -4.18 c0 -0.08 0.12 -0.42 0.34 -0.74 l0.26 -0.64 l3.16 -0.3 l2.26 0.28 l1.12 0.44 z M12.24 17.3 l0.74 -0.3 l0.24 -7.48 l-0.48 -0.28 l-1.92 -0.04 l-0.18 0.68 l0.04 2.82 l0 4.48 l0.32 0.06 z M19.200000000000003 13.379999999999999 l2 -0.1 l-0.06 -2.78 l-0.5 -1.94 l-1.24 -0.1 z M19.740000000000002 5.199999999999999 l1.28 0 l2.62 0.18 l0.54 7.26 l0.2 7.24 l-0.6 0.04 l-2.26 0.1 l-0.24 0 l-0.18 -4.5 l-1.88 -0.12 l-0.5 4.6 l-1.96 0.06 l0.64 -7.48 l0.58 -4.28 l0.42 -3 z M29.200000000000003 8.22 l-2.1 -0.22 l-0.22 9.2 l1.92 0.04 l0.28 -0.3 l0.48 -4.78 l0 -2.3 z M25.460000000000004 5.359999999999999 l0.62 0 l1.6 -0.04 c0.88 -0.02 1.72 -0.04 2.1 0.02 l1.18 0.34 c0.24 0.08 0.48 0.18 0.72 0.28 l1.1 1.76 c0.08 1.26 0.14 2.44 0.16 3.56 c0 1.92 0 4.02 -0.16 4.9 c-0.1 0.62 -0.24 1.14 -0.26 1.52 c-0.06 0.22 -0.08 0.44 -0.08 0.62 l-1.06 1.58 l-2.4 0.14 l-3.62 0 z M34.18 19.92 l-0.04 -6.94 l0.08 -0.74 l-0.04 -0.74 l0.1 -4.42 l0.18 -1.72 l6.5 0.12 l0.1 3.9 l-4.26 0 l-0.08 2.5 l3.26 -0.06 l0 0.22 l0.1 1.7 l-3.04 0.06 l0.1 2.96 l4.06 0.2 l0 3.08 z M44.00000000000001 7.699999999999999 l0.06 1.58 l0 2.06 l0.72 0 l0.7 -0.06 l0.46 -0.44 l0 -0.2 l0.08 -1.36 l-0.16 -1.22 l0 -0.04 l-0.22 -0.8 l-0.54 -0.24 l-1.04 0 z M43.88 5.24 l2.62 0.04 l1.24 0.14 l1.02 0.58 l0.8 1.32 l-0.26 3.86 l-0.32 0.6 l-1.18 0.38 l1.34 1 l0.36 0.98 l0 1.6 l-0.18 4.24 l-0.52 0.12 l-2.06 -0.1 l-0.1 -3.9 l-0.14 -2.06 l-0.48 -0.52 l-0.92 -0.3 l0 1.48 l0 3.72 l0.06 1.56 l-1.94 -0.02 l-0.92 0.06 l-0.32 -0.06 l0 -2.88 l0 -2.1 l0.12 -2.72 l-0.08 -4.68 l-0.04 -2.32 z M56.74 5.52 l0.52 0.86 l0 2.44 l-0.06 1.24 l-2.68 -0.14 l0 -0.78 l0 -1.06 l-1.32 0.02 l-0.22 0.56 l0.22 2.72 l2.06 0.12 l2 0.24 l0.06 2.54 l0 1.8 l-0.26 3.14 l-1.8 0.88 l-2.64 -0.12 l-1.2 -0.48 l-0.6 -0.46 l-0.28 -1.46 l0.1 -2.48 l0.1 -0.8 l0.68 0.04 l1.56 0.18 l0 0.6 l0 0.66 l0 0.34 l0 0.54 l1.88 0.22 l0.06 -3.6 l-3.98 -0.22 l-0.16 -4.4 l-0.04 -2.88 l0.66 -0.48 c0.46 -0.02 0.86 -0.06 1.24 -0.1 c0.64 -0.06 1.28 -0.1 1.42 -0.1 c0.1 0 0.46 0.02 0.8 0.04 l0.64 0.04 z"></path></g></svg>